<?xml version="1.0" encoding="utf-8"?>
<svg xmlns="http://www.w3.org/2000/svg"
	xmlns:xlink="http://www.w3.org/1999/xlink"
	width="26px" height="26px" viewBox="0 0 26 26">
<g><circle cx="13.00" cy="13.00" r="13.00" fill="rgb(59,89,151)"/><path fillRule="evenodd" d="M 14.56 9.01C 14.56 9.01 16.21 9.01 16.21 9.01 16.21 9.01 16.21 6.57 16.21 6.57 16.21 6.57 14.27 6.57 14.27 6.57 14.27 6.57 14.27 6.58 14.27 6.58 11.92 6.67 11.44 7.99 11.4 9.38 11.4 9.38 11.39 9.38 11.39 9.38 11.39 9.38 11.39 10.59 11.39 10.59 11.39 10.59 9.79 10.59 9.79 10.59 9.79 10.59 9.79 12.98 9.79 12.98 9.79 12.98 11.39 12.98 11.39 12.98 11.39 12.98 11.39 19.37 11.39 19.37 11.39 19.37 13.8 19.37 13.8 19.37 13.8 19.37 13.8 12.98 13.8 12.98 13.8 12.98 15.78 12.98 15.78 12.98 15.78 12.98 16.16 10.59 16.16 10.59 16.16 10.59 13.8 10.59 13.8 10.59 13.8 10.59 13.8 9.86 13.8 9.86 13.8 9.39 14.11 9.01 14.56 9.01Z" fill="rgb(255,255,255)"/></g></svg>