<?xml version="1.0" encoding="utf-8"?>
<svg xmlns="http://www.w3.org/2000/svg"
	xmlns:xlink="http://www.w3.org/1999/xlink"
	width="26px" height="26px" viewBox="0 0 26 26">
<g><circle cx="13.00" cy="13.00" r="13.00" fill="rgb(63,113,155)"/><path fillRule="evenodd" d="M 17.42 5.8C 17.42 5.8 8.58 5.8 8.58 5.8 7.05 5.8 5.8 7.05 5.8 8.58 5.8 8.58 5.8 11.52 5.8 11.52 5.8 11.52 5.8 17.42 5.8 17.42 5.8 18.95 7.05 20.2 8.58 20.2 8.58 20.2 17.42 20.2 17.42 20.2 18.95 20.2 20.2 18.95 20.2 17.42 20.2 17.42 20.2 11.52 20.2 11.52 20.2 11.52 20.2 8.58 20.2 8.58 20.2 7.05 18.95 5.8 17.42 5.8ZM 18.29 7.41C 18.29 7.41 18.61 7.41 18.61 7.41 18.61 7.41 18.61 7.72 18.61 7.72 18.61 7.72 18.61 9.8 18.61 9.8 18.61 9.8 16.2 9.81 16.2 9.81 16.2 9.81 16.19 7.41 16.19 7.41 16.19 7.41 18.29 7.41 18.29 7.41ZM 13 10.59C 15 10.59 15.41 12.47 15.41 13 15.41 14.33 14.33 15.41 13 15.41 11.67 15.41 10.59 14.33 10.59 13 10.59 12.47 11 10.59 13 10.59ZM 18.62 17.24C 18.62 18 18 18.62 17.24 18.62 17.24 18.62 8.73 18.62 8.73 18.62 7.97 18.62 7.35 18 7.35 17.24 7.35 17.24 7.35 11.4 7.35 11.4 7.35 11.4 9.35 11.4 9.35 11.4 9.17 11.85 9.06 12.48 9.06 13 9.06 15.17 10.83 16.94 13 16.94 15.17 16.94 16.94 15.17 16.94 13 16.94 12.48 16.83 11.85 16.65 11.4 16.65 11.4 18.62 11.4 18.62 11.4 18.62 11.4 18.62 17.24 18.62 17.24Z" fill="rgb(255,255,255)"/></g></svg>