<?xml version="1.0" encoding="utf-8"?>
<svg xmlns="http://www.w3.org/2000/svg"
	xmlns:xlink="http://www.w3.org/1999/xlink"
	width="26px" height="26px" viewBox="0 0 26 26">
<g><circle cx="13.00" cy="13.00" r="13.00" fill="rgb(13,117,167)"/><path fillRule="evenodd" d="M 17.01 17.79C 17.01 17.79 17.01 13.43 17.01 13.43 17.01 12.54 16.75 11.64 15.7 11.64 14.65 11.64 13.81 12.54 13.81 13.45 13.81 13.45 13.81 17.79 13.81 17.79 13.81 17.79 11.4 17.79 11.4 17.79 11.4 17.79 11.4 9.77 11.4 9.77 11.4 9.77 13.81 9.77 13.81 9.77 13.81 9.77 13.81 10.88 13.81 10.88 14.55 9.95 15.59 9.52 16.75 9.52 17.91 9.52 19.41 10.1 19.41 13.25 19.41 13.25 19.41 17.79 19.41 17.79 19.41 17.79 17.01 17.79 17.01 17.79ZM 7.41 9.8C 7.41 9.8 9.81 9.8 9.81 9.8 9.81 9.8 9.81 17.79 9.81 17.79 9.81 17.79 7.41 17.79 7.41 17.79 7.41 17.79 7.41 9.8 7.41 9.8ZM 8.6 9C 7.94 9 7.4 8.46 7.4 7.8 7.4 7.14 7.94 6.6 8.6 6.6 9.26 6.6 9.8 7.14 9.8 7.8 9.8 8.46 9.26 9 8.6 9Z" fill="rgb(255,255,255)"/></g></svg>