<?xml version="1.0" encoding="utf-8"?>
<svg xmlns="http://www.w3.org/2000/svg"
	xmlns:xlink="http://www.w3.org/1999/xlink"
	width="26px" height="26px" viewBox="0 0 26 26">
<g><circle cx="13.00" cy="13.00" r="13.00" fill="rgb(37,165,209)"/><path fillRule="evenodd" d="M 21 8.82C 20.44 9.06 19.84 9.23 19.21 9.3 19.85 8.92 20.35 8.33 20.58 7.62 19.98 7.97 19.31 8.22 18.6 8.36 18.03 7.77 17.22 7.4 16.32 7.4 14.6 7.4 13.21 8.76 13.21 10.43 13.21 10.67 13.23 10.9 13.29 11.12 10.69 10.99 8.39 9.79 6.86 7.96 6.59 8.4 6.43 8.92 6.43 9.48 6.43 10.53 6.98 11.46 7.82 12 7.31 11.98 6.83 11.85 6.41 11.62 6.41 11.63 6.41 11.65 6.41 11.66 6.41 13.13 7.48 14.35 8.91 14.63 8.65 14.7 8.37 14.73 8.09 14.73 7.89 14.73 7.69 14.71 7.5 14.68 7.9 15.88 9.05 16.76 10.42 16.78 9.35 17.59 8 18.08 6.54 18.08 6.29 18.08 6.04 18.06 5.8 18.03 7.18 18.89 8.82 19.4 10.58 19.4 16.32 19.4 19.45 14.78 19.45 10.78 19.45 10.65 19.45 10.52 19.45 10.39 20.06 9.96 20.58 9.43 21 8.82Z" fill="rgb(255,255,255)"/></g></svg>