<?xml version="1.0" encoding="utf-8"?>
<svg xmlns="http://www.w3.org/2000/svg"
	xmlns:xlink="http://www.w3.org/1999/xlink"
	width="26px" height="26px" viewBox="0 0 26 26">
<g><circle cx="13.00" cy="13.00" r="13.00" fill="rgb(133,201,239)"/><path fillRule="evenodd" d="M 5.8 10.6C 7 9.64 8.7 7.55 10.03 7.55 11.35 7.55 11.68 9.11 11.86 10.53 12.04 11.95 12.56 15.06 13.26 15.06 13.96 15.06 15.56 12.31 15.47 11.25 15.38 10.19 14.23 10.35 13.59 10.65 14.17 8.53 15.53 7.4 17.25 7.4 18.98 7.4 19.4 8.62 19.4 10.12 19.4 12.4 14.77 19.4 11.98 19.4 10.25 19.4 9.82 16.85 9.47 15.59 9.12 14.33 8.43 11.02 7.62 10.81 7.31 10.76 6.42 11.46 6.42 11.46 6.42 11.46 5.8 10.6 5.8 10.6Z" fill="rgb(255,255,255)"/></g></svg>